<?xml version="1.0" encoding="utf-8"?>
<svg version="1.0" xmlns="http://www.w3.org/2000/svg" width="868.000000pt" height="868.000000pt" viewBox="0 0 868.000000 868.000000" preserveAspectRatio="xMidYMid meet">
  <g transform="translate(0.000000,868.000000) scale(0.100000,-0.100000)" fill="#000000" stroke="none">
    <path d="M4211 8503 c-196 -194 -279 -372 -269 -578 l3 -70 -67 -7 c-253 -25 -645 -136 -948 -270 -263 -116 -561 -287 -777 -447 l-31 -23 -60 45 c-64 50 -172 108 -237 127 -45 13 -369 26 -409 16 -47 -12 -56 -49 -56 -229 0 -176 16 -270 61 -359 24 -48 72 -114 101 -140 18 -17 18 -19 -28 -75 -61 -74 -195 -280 -266 -408 -203 -364 -354 -804 -413 -1200 -9 -60 -19 -120 -21 -132 -4 -21 -10 -23 -79 -23 -98 0 -165 -15 -250 -57 -118 -58 -239 -161 -338 -287 l-46 -59 46 -59 c72 -91 202 -211 279 -256 98 -58 182 -84 292 -90 84 -4 93 -7 96 -26 3 -11 14 -84 26 -161 82 -525 318 -1102 628 -1530 l79 -110 -34 -40 c-42 -49 -99 -161 -118 -235 -10 -39 -15 -110 -15 -241 0 -176 1 -188 22 -214 l21 -27 191 4 c170 4 198 7 251 28 68 26 116 54 197 117 31 23 60 43 64 43 4 0 39 -24 78 -54 267 -202 631 -393 966 -508 210 -72 535 -149 690 -163 111 -10 105 -7 102 -68 -5 -79 21 -204 61 -289 43 -92 112 -179 233 -290 78 -72 99 -86 113 -78 10 5 72 62 138 127 128 126 177 196 213 303 22 66 43 223 33 259 -6 22 -8 21 162 46 561 84 1140 325 1589 663 l79 59 76 -61 c136 -110 225 -136 462 -136 l168 0 20 26 c20 25 21 40 21 208 0 199 -11 270 -56 359 -28 55 -75 121 -106 149 -18 16 -17 19 44 95 319 397 585 1029 671 1595 l22 148 65 0 c202 0 433 139 605 364 33 44 34 42 -86 170 -177 189 -341 276 -521 276 l-67 0 -5 33 c-46 304 -89 486 -163 701 -122 351 -305 702 -510 977 l-83 112 51 53 c102 109 139 233 139 475 0 153 -2 168 -21 193 l-20 26 -150 0 c-226 0 -352 -36 -474 -136 -30 -24 -57 -44 -60 -44 -3 0 -60 38 -128 84 -482 330 -1145 588 -1652 643 l-70 8 -6 110 c-10 174 -59 291 -185 439 -71 82 -199 206 -214 206 -6 0 -59 -48 -119 -107z m-171 -1371 c0 -5 11 -197 25 -428 13 -230 31 -549 40 -709 9 -159 20 -344 24 -410 5 -66 6 -123 4 -127 -2 -5 -14 -8 -25 -8 -52 0 -192 -48 -304 -105 l-121 -61 -254 275 c-354 384 -643 695 -771 833 -60 65 -107 122 -104 127 11 17 242 179 336 235 299 179 685 323 989 371 101 15 161 18 161 7z m795 -12 c238 -39 452 -107 710 -225 148 -68 390 -216 517 -316 26 -20 53 -39 60 -41 16 -6 -34 -61 -627 -702 -258 -280 -474 -515 -478 -522 -12 -22 -27 -18 -148 40 -108 51 -248 96 -299 96 l-23 0 7 168 c4 92 22 462 41 822 19 360 35 665 35 678 0 19 5 22 43 22 23 0 96 -9 162 -20z m1795 -1090 c283 -383 495 -915 544 -1371 l6 -56 -243 -7 c-500 -13 -1000 -26 -1228 -30 l-236 -4 -23 80 c-26 90 -72 190 -125 273 l-36 56 53 47 c29 26 120 108 203 182 82 75 251 226 375 336 124 111 317 285 430 387 113 103 208 187 213 187 4 0 34 -36 67 -80z m-4268 -156 c519 -471 908 -820 980 -879 l38 -31 -26 -37 c-43 -64 -102 -198 -126 -285 l-23 -84 -180 6 c-99 3 -328 8 -510 11 -181 3 -370 8 -420 10 -49 3 -197 7 -328 11 -130 3 -239 10 -242 14 -2 4 5 64 15 135 60 392 186 753 364 1051 86 144 197 305 208 301 4 -1 117 -101 250 -223z m2071 -1069 c109 -14 260 -118 337 -234 179 -266 31 -631 -291 -716 -71 -19 -200 -19 -274 0 -227 60 -378 269 -362 505 14 225 197 417 427 449 55 7 72 7 163 -4z m-1203 -806 c31 -96 76 -200 120 -271 17 -26 30 -50 30 -53 0 -2 -134 -124 -297 -272 -986 -890 -960 -868 -976 -854 -26 21 -132 175 -207 300 -168 280 -288 616 -350 976 -11 64 -20 135 -20 156 0 38 1 39 38 39 20 0 181 7 357 15 654 30 1238 53 1269 50 5 -1 21 -39 36 -86z m2800 66 c223 -8 439 -17 480 -20 41 -3 199 -10 350 -16 151 -6 279 -14 284 -19 4 -4 1 -57 -9 -117 -55 -358 -166 -698 -316 -968 -65 -117 -213 -338 -247 -368 -20 -18 -26 -13 -358 279 -384 338 -892 793 -912 817 -12 14 -9 22 16 59 55 81 115 219 158 365 2 9 23 11 76 8 40 -3 255 -12 478 -20z m-2077 -819 c62 -19 129 -38 150 -42 l37 -6 -5 -47 c-3 -25 -12 -185 -20 -356 -32 -690 -47 -978 -58 -1135 l-12 -165 -60 3 c-141 6 -432 74 -631 147 -150 55 -426 194 -550 278 -136 91 -249 176 -249 187 0 4 92 109 205 231 113 123 301 329 419 459 118 129 284 310 368 402 l154 166 70 -43 c42 -26 116 -58 182 -79z m1268 -143 c128 -142 265 -292 304 -333 180 -194 600 -653 602 -659 5 -17 -360 -260 -502 -333 -200 -103 -481 -203 -700 -248 -102 -21 -283 -46 -288 -39 -3 3 -17 271 -77 1466 -14 267 -17 240 33 248 106 18 277 83 352 133 17 11 33 21 36 21 4 1 111 -115 240 -256z" style="fill: rgb(127, 100, 236);"/>
  </g>
</svg>